<?xml version="1.0" encoding="UTF-8" standalone="no"?>
<!-- Created with Inkscape (http://www.inkscape.org/) -->

<svg
   xmlns:dc="http://purl.org/dc/elements/1.1/"
   xmlns:cc="http://creativecommons.org/ns#"
   xmlns:rdf="http://www.w3.org/1999/02/22-rdf-syntax-ns#"
   xmlns:svg="http://www.w3.org/2000/svg"
   xmlns="http://www.w3.org/2000/svg"
   xmlns:sodipodi="http://sodipodi.sourceforge.net/DTD/sodipodi-0.dtd"
   xmlns:inkscape="http://www.inkscape.org/namespaces/inkscape"
   width="1024"
   height="768"
   id="svg2"
   version="1.1"
   inkscape:version="0.48.2 r9819"
   sodipodi:docname="kms.svg">
  <defs
     id="defs4" />
  <sodipodi:namedview
     id="base"
     pagecolor="#000000"
     bordercolor="#666666"
     borderopacity="1.0"
     inkscape:pageopacity="1"
     inkscape:pageshadow="2"
     inkscape:zoom="0.61588542"
     inkscape:cx="510.37632"
     inkscape:cy="384"
     inkscape:document-units="px"
     inkscape:current-layer="layer1"
     showgrid="false"
     inkscape:window-width="1366"
     inkscape:window-height="709"
     inkscape:window-x="0"
     inkscape:window-y="27"
     inkscape:window-maximized="1" />
  <metadata
     id="metadata7">
    <rdf:RDF>
      <cc:Work
         rdf:about="">
        <dc:format>image/svg+xml</dc:format>
        <dc:type
           rdf:resource="http://purl.org/dc/dcmitype/StillImage" />
        <dc:title></dc:title>
      </cc:Work>
    </rdf:RDF>
  </metadata>
  <g
     inkscape:label="Layer 1"
     inkscape:groupmode="layer"
     id="layer1"
     transform="translate(0,-284.36218)">
    <path
       style="fill:#ffbc00;fill-opacity:1;stroke:#000000;stroke-width:2;stroke-linecap:butt;stroke-linejoin:miter;stroke-opacity:1;stroke-miterlimit:4;stroke-dasharray:none"
       d="M 304 335.875 L 304 372.8125 L 238.4375 372.8125 C 238.42979 372.72929 238.41463 372.64551 238.40625 372.5625 C 238.35555 372.0604 238.29372 371.55687 238.21875 371.0625 C 238.19985 370.9381 238.17667 370.81139 238.15625 370.6875 C 238.11775 370.45393 238.07507 370.23169 238.03125 370 C 237.95394 369.58991 237.87496 369.18516 237.78125 368.78125 C 237.76915 368.72908 237.76237 368.67706 237.75 368.625 C 237.44508 367.3458 237.0559 366.08405 236.59375 364.875 C 236.56155 364.79063 236.53294 364.709 236.5 364.625 C 236.393 364.35236 236.27091 364.08114 236.15625 363.8125 C 236.09056 363.65868 236.03692 363.49622 235.96875 363.34375 C 235.78555 362.93376 235.57578 362.55617 235.375 362.15625 C 235.37089 362.14805 235.37912 362.1332 235.375 362.125 C 235.23807 361.85289 235.08239 361.57975 234.9375 361.3125 C 234.86381 361.17651 234.79447 361.04095 234.71875 360.90625 C 234.55921 360.62241 234.38716 360.34048 234.21875 360.0625 C 233.96727 359.64738 233.70824 359.24527 233.4375 358.84375 C 233.38242 358.76209 233.33711 358.67483 233.28125 358.59375 C 232.788 357.87761 232.27087 357.20025 231.71875 356.53125 C 231.69505 356.50251 231.68005 356.46615 231.65625 356.4375 C 231.22477 355.91865 230.74629 355.42575 230.28125 354.9375 C 230.12355 354.77193 229.97394 354.59941 229.8125 354.4375 C 229.30266 353.92623 228.76437 353.4422 228.21875 352.96875 C 228.07983 352.84823 227.95365 352.71173 227.8125 352.59375 C 227.26015 352.1318 226.679 351.70302 226.09375 351.28125 C 225.94328 351.17288 225.80881 351.04312 225.65625 350.9375 C 225.55589 350.86796 225.445 350.81834 225.34375 350.75 C 224.95736 350.48921 224.58651 350.2117 224.1875 349.96875 C 224.14802 349.94471 224.1021 349.93011 224.0625 349.90625 C 223.83022 349.76657 223.58011 349.6335 223.34375 349.5 C 223.18854 349.4122 223.03193 349.3351 222.875 349.25 C 222.63366 349.11922 222.40157 348.96805 222.15625 348.84375 C 221.83104 348.67897 221.48821 348.52815 221.15625 348.375 C 221.07241 348.33634 220.99051 348.28791 220.90625 348.25 C 220.53893 348.08466 220.15634 347.93208 219.78125 347.78125 C 219.72851 347.76007 219.67789 347.73963 219.625 347.71875 C 218.92175 347.44055 218.22845 347.19429 217.5 346.96875 C 217.10927 346.84778 216.70998 346.73031 216.3125 346.625 C 216.14848 346.58154 215.97763 346.54075 215.8125 346.5 C 215.76034 346.48712 215.70852 346.48135 215.65625 346.46875 C 215.3161 346.38671 214.96963 346.32039 214.625 346.25 C 214.25232 346.17388 213.87765 346.09348 213.5 346.03125 C 213.19939 345.98171 212.89736 345.94683 212.59375 345.90625 C 212.27681 345.86404 211.94505 345.81356 211.625 345.78125 C 211.24012 345.74253 210.85787 345.71163 210.46875 345.6875 C 209.84024 345.64852 209.20113 345.625 208.5625 345.625 L 76.96875 345.625 C 75.410625 345.625 73.867817 345.74191 72.375 345.96875 C 71.379789 346.11998 70.428746 346.31664 69.46875 346.5625 C 61.788779 348.52935 55.312783 353.43409 51.3125 360.03125 C 51.30795 360.03874 51.317044 360.05501 51.3125 360.0625 C 49.319859 363.35537 47.916004 367.05964 47.3125 371.03125 C 47.310957 371.04133 47.314033 371.05241 47.3125 371.0625 C 47.16376 372.04803 47.051128 373.04733 47 374.0625 C 46.999466 374.07289 47.000524 374.08336 47 374.09375 C 46.975193 374.59637 46.96875 375.11601 46.96875 375.625 L 46.96875 422.78125 C 46.96875 423.82 47.022944 424.83279 47.125 425.84375 C 47.126024 425.854 47.123966 425.86475 47.125 425.875 C 47.278549 427.38083 47.539938 428.85091 47.90625 430.28125 C 47.90872 430.29094 47.90377 430.30282 47.90625 430.3125 C 48.273941 431.74227 48.748537 433.13095 49.3125 434.46875 C 49.316234 434.47763 49.308757 434.49112 49.3125 434.5 C 49.688149 435.38872 50.137466 436.25172 50.59375 437.09375 C 50.598047 437.1017 50.589446 437.11706 50.59375 437.125 C 51.050975 437.96695 51.560675 438.77215 52.09375 439.5625 C 52.098633 439.56975 52.088861 439.5865 52.09375 439.59375 C 52.627659 440.38387 53.207556 441.14138 53.8125 441.875 C 53.817605 441.8812 53.80739 441.90005 53.8125 441.90625 C 54.418459 442.63992 55.077769 443.32777 55.75 444 C 56.093935 444.34445 56.420889 444.67261 56.78125 445 C 57.490905 445.64473 58.230375 446.26889 59 446.84375 C 60.53925 447.99347 62.188074 449.00323 63.9375 449.84375 C 67.873709 451.73492 72.294375 452.78125 76.96875 452.78125 L 208.5625 452.78125 C 209.00349 452.78125 209.43875 452.76863 209.875 452.75 C 210.3213 452.73112 210.74657 452.69425 211.1875 452.65625 C 211.49262 452.63015 211.79136 452.59758 212.09375 452.5625 C 212.21638 452.54821 212.34658 452.547 212.46875 452.53125 C 212.86316 452.48052 213.23563 452.40952 213.625 452.34375 C 213.6557 452.33858 213.68808 452.34901 213.71875 452.34375 C 213.73893 452.34028 213.76108 452.34726 213.78125 452.34375 C 214.18483 452.27362 214.57097 452.17973 214.96875 452.09375 C 215.23785 452.03559 215.51494 451.97152 215.78125 451.90625 C 215.9264 451.87057 216.07445 451.85027 216.21875 451.8125 C 216.64804 451.70055 217.07854 451.56766 217.5 451.4375 C 217.87621 451.32097 218.25537 451.19322 218.625 451.0625 C 218.97329 450.93962 219.31407 450.82269 219.65625 450.6875 C 219.69999 450.67018 219.73762 450.64252 219.78125 450.625 C 220.04678 450.51865 220.30083 450.42614 220.5625 450.3125 C 220.67722 450.26262 220.79229 450.20752 220.90625 450.15625 C 221.24046 450.00597 221.57875 449.8495 221.90625 449.6875 C 221.94843 449.66662 221.98919 449.64607 222.03125 449.625 C 222.3122 449.4844 222.59922 449.33657 222.875 449.1875 C 222.96022 449.14132 223.04028 449.07823 223.125 449.03125 C 223.47149 448.83957 223.81841 448.67357 224.15625 448.46875 C 224.16881 448.46114 224.17496 448.44513 224.1875 448.4375 C 224.3562 448.3349 224.52103 448.23082 224.6875 448.125 C 224.86841 448.0099 225.04052 447.90009 225.21875 447.78125 C 225.26189 447.75253 225.30077 447.71644 225.34375 447.6875 C 225.5029 447.58016 225.65556 447.45405 225.8125 447.34375 C 226.08054 447.15563 226.36355 446.97784 226.625 446.78125 C 226.96245 446.52751 227.29891 446.26747 227.625 446 C 227.63639 445.99066 227.64487 445.97811 227.65625 445.96875 C 228.02638 445.66354 228.39517 445.32237 228.75 445 C 229.04428 444.73277 229.34163 444.46615 229.625 444.1875 C 229.67727 444.1361 229.72936 444.08303 229.78125 444.03125 C 230.11487 443.69763 230.46365 443.34905 230.78125 443 C 230.78664 442.99408 230.77586 442.97467 230.78125 442.96875 C 230.94243 442.79134 231.09307 442.61878 231.25 442.4375 C 231.55079 442.09063 231.84022 441.73564 232.125 441.375 C 232.1921 441.2899 232.27756 441.21085 232.34375 441.125 C 232.45856 440.97624 232.57545 440.83847 232.6875 440.6875 C 232.81925 440.51002 232.93462 440.33673 233.0625 440.15625 C 233.4691 439.58239 233.85257 438.97801 234.21875 438.375 C 234.47034 437.96069 234.70576 437.5523 234.9375 437.125 C 235.32497 436.41054 235.70164 435.65469 236.03125 434.90625 C 236.05023 434.86307 236.07497 434.82454 236.09375 434.78125 C 236.17142 434.60262 236.23822 434.43044 236.3125 434.25 C 236.3935 434.05299 236.48559 433.85537 236.5625 433.65625 C 236.80601 433.02549 237.01739 432.36961 237.21875 431.71875 C 237.35677 431.27263 237.50743 430.82992 237.625 430.375 C 237.63578 430.3333 237.64565 430.29177 237.65625 430.25 C 237.67158 430.18959 237.67254 430.12306 237.6875 430.0625 L 304 430.0625 L 304 462.53125 L 357.09375 400.75 L 357.09375 422.78125 C 357.09375 423.82 357.14794 424.83279 357.25 425.84375 C 357.25102 425.854 357.24897 425.86475 357.25 425.875 C 357.40355 427.38083 357.66494 428.85091 358.03125 430.28125 C 358.03372 430.29094 358.02877 430.30282 358.03125 430.3125 C 358.39894 431.74227 358.87354 433.13095 359.4375 434.46875 C 359.44123 434.47763 359.43376 434.49112 359.4375 434.5 C 359.62348 434.93999 359.82521 435.38365 360.03125 435.8125 C 360.87177 437.56193 361.88153 439.21075 363.03125 440.75 C 363.31868 441.13481 363.63229 441.50487 363.9375 441.875 C 363.9426 441.8812 363.93239 441.90005 363.9375 441.90625 C 364.23796 442.27004 364.55794 442.61977 364.875 442.96875 C 367.45393 445.80737 370.56365 448.16271 374.0625 449.84375 C 375.37457 450.47414 376.74545 451.00053 378.15625 451.4375 C 378.62652 451.58316 379.0825 451.72082 379.5625 451.84375 C 380.53178 452.09302 381.49477 452.28475 382.5 452.4375 C 382.99761 452.51311 383.49452 452.57397 384 452.625 C 385.02082 452.72909 386.04456 452.78125 387.09375 452.78125 L 541.40625 452.78125 C 555.51809 452.78125 567.29837 443.14793 570.53125 430.0625 L 636.125 430.0625 L 636.125 462.53125 L 687.90625 402.28125 L 687.90625 422.78125 C 687.90625 439.40125 701.28625 452.78125 717.90625 452.78125 L 943.6875 452.78125 C 960.3075 452.78125 973.6875 439.40125 973.6875 422.78125 L 973.6875 375.625 C 973.6875 359.005 960.3075 345.625 943.6875 345.625 L 717.90625 345.625 C 701.28625 345.625 687.90625 359.005 687.90625 375.625 L 687.90625 396.15625 L 636.125 335.875 L 636.125 372.8125 L 571.28125 372.8125 C 569.86534 357.52811 557.07259 345.625 541.40625 345.625 L 387.09375 345.625 C 386.57437 345.625 386.04399 345.63043 385.53125 345.65625 C 385.01851 345.68207 384.50548 345.73022 384 345.78125 C 382.58227 345.92582 381.19499 346.16641 379.84375 346.5 C 379.75131 346.52273 379.65459 346.53892 379.5625 346.5625 C 376.69331 347.30037 373.96563 348.47368 371.5 349.96875 C 371.08768 350.21877 370.68013 350.48097 370.28125 350.75 C 369.0925 351.55328 367.96437 352.44493 366.90625 353.40625 C 366.1966 354.05098 365.51973 354.72785 364.875 355.4375 C 364.23027 356.14715 363.60611 356.88662 363.03125 357.65625 C 362.56947 358.27448 362.16381 358.9397 361.75 359.59375 C 361.65276 359.7477 361.532 359.87541 361.4375 360.03125 C 361.43284 360.03891 361.44215 360.05483 361.4375 360.0625 C 361.34927 360.2083 361.24205 360.35258 361.15625 360.5 C 360.75677 361.18524 360.37657 361.87501 360.03125 362.59375 C 358.77047 365.21789 357.89118 368.04562 357.4375 371.03125 C 357.43596 371.04133 357.43903 371.05241 357.4375 371.0625 C 357.28876 372.04803 357.17613 373.04733 357.125 374.0625 C 357.12447 374.07289 357.12552 374.08336 357.125 374.09375 C 357.10019 374.59637 357.09375 375.11601 357.09375 375.625 L 357.09375 397.6875 L 304 335.875 z "
       transform="translate(0,284.36218)"
       id="path4436" />
    <path
       style="fill:#ffbc00;fill-opacity:1;stroke:#000000;stroke-width:1px;stroke-linecap:butt;stroke-linejoin:miter;stroke-opacity:1"
       d="m 237.42918,657.1867 66.57082,0 0,-36.93869 54.39323,63.32347 L 304,746.89495 l 0,-32.47358 -66.57082,0"
       id="path4418"
       inkscape:connector-curvature="0"
       sodipodi:nodetypes="ccccccc" />
    <text
       xml:space="preserve"
       style="font-size:40px;font-style:normal;font-weight:normal;line-height:125%;letter-spacing:0px;word-spacing:0px;fill:#000000;fill-opacity:1;stroke:none;font-family:Sans"
       x="72.947144"
       y="701.43195"
       id="text4414"
       sodipodi:linespacing="125%"><tspan
         sodipodi:role="line"
         id="tspan4416"
         x="72.947144"
         y="701.43195">CRTC's</tspan></text>
    <text
       sodipodi:linespacing="125%"
       id="text4424"
       y="701.43195"
       x="713.89008"
       style="font-size:40px;font-style:normal;font-weight:normal;line-height:125%;letter-spacing:0px;word-spacing:0px;fill:#000000;fill-opacity:1;stroke:none;font-family:Sans"
       xml:space="preserve"><tspan
         y="701.43195"
         x="713.89008"
         id="tspan4426"
         sodipodi:role="line">Connectors</tspan></text>
    <text
       sodipodi:linespacing="125%"
       id="text4432"
       y="701.43195"
       x="72.947144"
       style="font-size:40px;font-style:normal;font-weight:normal;line-height:125%;letter-spacing:0px;word-spacing:0px;fill:#000000;fill-opacity:1;stroke:none;font-family:Sans"
       xml:space="preserve"><tspan
         y="701.43195"
         x="72.947144"
         id="tspan4434"
         sodipodi:role="line">CRTC's</tspan></text>
    <text
       sodipodi:linespacing="125%"
       id="text4440"
       y="701.43195"
       x="373.06976"
       style="font-size:40px;font-style:normal;font-weight:normal;line-height:125%;letter-spacing:0px;word-spacing:0px;fill:#000000;fill-opacity:1;stroke:none;font-family:Sans"
       xml:space="preserve"><tspan
         y="701.43195"
         x="373.06976"
         id="tspan4442"
         sodipodi:role="line">Encoders</tspan></text>
  </g>
</svg>
