<?xml version="1.0" encoding="UTF-8" standalone="no"?>
<!-- Created with Inkscape (http://www.inkscape.org/) -->

<svg
   xmlns:dc="http://purl.org/dc/elements/1.1/"
   xmlns:cc="http://creativecommons.org/ns#"
   xmlns:rdf="http://www.w3.org/1999/02/22-rdf-syntax-ns#"
   xmlns:svg="http://www.w3.org/2000/svg"
   xmlns="http://www.w3.org/2000/svg"
   xmlns:sodipodi="http://sodipodi.sourceforge.net/DTD/sodipodi-0.dtd"
   xmlns:inkscape="http://www.inkscape.org/namespaces/inkscape"
   width="1024"
   height="768"
   id="svg2"
   version="1.1"
   inkscape:version="0.48.2 r9819"
   sodipodi:docname="kms.svg">
  <defs
     id="defs4" />
  <sodipodi:namedview
     id="base"
     pagecolor="#000000"
     bordercolor="#666666"
     borderopacity="1.0"
     inkscape:pageopacity="1"
     inkscape:pageshadow="2"
     inkscape:zoom="0.49997565"
     inkscape:cx="106.35095"
     inkscape:cy="322.30021"
     inkscape:document-units="px"
     inkscape:current-layer="layer1"
     showgrid="false"
     inkscape:window-width="1366"
     inkscape:window-height="709"
     inkscape:window-x="0"
     inkscape:window-y="27"
     inkscape:window-maximized="1" />
  <metadata
     id="metadata7">
    <rdf:RDF>
      <cc:Work
         rdf:about="">
        <dc:format>image/svg+xml</dc:format>
        <dc:type
           rdf:resource="http://purl.org/dc/dcmitype/StillImage" />
        <dc:title />
      </cc:Work>
    </rdf:RDF>
  </metadata>
  <g
     inkscape:label="Layer 1"
     inkscape:groupmode="layer"
     id="layer1"
     transform="translate(0,-284.36218)">
    <path
       style="fill:#ffbc00;fill-opacity:1;stroke:#000000;stroke-width:2;stroke-linecap:butt;stroke-linejoin:miter;stroke-miterlimit:4;stroke-opacity:1;stroke-dasharray:none"
       d="m 304,770.23718 0,36.9375 -65.5625,0 c -0.008,-0.0832 -0.0229,-0.16699 -0.0312,-0.25 -0.0507,-0.5021 -0.11253,-1.00563 -0.1875,-1.5 -0.0189,-0.1244 -0.0421,-0.25111 -0.0625,-0.375 -0.0385,-0.23357 -0.0812,-0.45581 -0.125,-0.6875 -0.0773,-0.41009 -0.15629,-0.81484 -0.25,-1.21875 -0.0121,-0.0522 -0.0189,-0.10419 -0.0312,-0.15625 -0.30492,-1.2792 -0.6941,-2.54095 -1.15625,-3.75 -0.0322,-0.0844 -0.0608,-0.166 -0.0937,-0.25 -0.107,-0.27264 -0.22909,-0.54386 -0.34375,-0.8125 -0.0657,-0.15382 -0.11933,-0.31628 -0.1875,-0.46875 -0.1832,-0.40999 -0.39297,-0.78758 -0.59375,-1.1875 -0.004,-0.008 0.004,-0.0231 0,-0.0312 -0.13693,-0.27211 -0.29261,-0.54525 -0.4375,-0.8125 -0.0737,-0.13599 -0.14303,-0.27155 -0.21875,-0.40625 -0.15954,-0.28384 -0.33159,-0.56577 -0.5,-0.84375 -0.25148,-0.41512 -0.51051,-0.81723 -0.78125,-1.21875 -0.0551,-0.0817 -0.10039,-0.16892 -0.15625,-0.25 -0.49325,-0.71614 -1.01038,-1.3935 -1.5625,-2.0625 -0.0237,-0.0287 -0.0387,-0.0651 -0.0625,-0.0937 -0.43148,-0.51885 -0.90996,-1.01175 -1.375,-1.5 -0.1577,-0.16557 -0.30731,-0.33809 -0.46875,-0.5 -0.50984,-0.51127 -1.04813,-0.9953 -1.59375,-1.46875 -0.13892,-0.12052 -0.2651,-0.25702 -0.40625,-0.375 -0.55235,-0.46195 -1.1335,-0.89073 -1.71875,-1.3125 -0.15047,-0.10837 -0.28494,-0.23813 -0.4375,-0.34375 -0.10036,-0.0695 -0.21125,-0.11916 -0.3125,-0.1875 -0.38639,-0.26079 -0.75724,-0.5383 -1.15625,-0.78125 -0.0395,-0.024 -0.0854,-0.0386 -0.125,-0.0625 -0.23228,-0.13968 -0.48239,-0.27275 -0.71875,-0.40625 -0.15521,-0.0878 -0.31182,-0.1649 -0.46875,-0.25 -0.24134,-0.13078 -0.47343,-0.28195 -0.71875,-0.40625 -0.32521,-0.16478 -0.66804,-0.3156 -1,-0.46875 -0.0838,-0.0387 -0.16574,-0.0871 -0.25,-0.125 -0.36732,-0.16534 -0.74991,-0.31792 -1.125,-0.46875 -0.0527,-0.0212 -0.10336,-0.0416 -0.15625,-0.0625 -0.70325,-0.2782 -1.39655,-0.52446 -2.125,-0.75 -0.39073,-0.12097 -0.79002,-0.23844 -1.1875,-0.34375 -0.16402,-0.0435 -0.33487,-0.0842 -0.5,-0.125 -0.0522,-0.0129 -0.10398,-0.0186 -0.15625,-0.0312 -0.34015,-0.082 -0.68662,-0.14836 -1.03125,-0.21875 -0.37268,-0.0761 -0.74735,-0.15652 -1.125,-0.21875 -0.30061,-0.0495 -0.60264,-0.0844 -0.90625,-0.125 -0.31694,-0.0422 -0.6487,-0.0927 -0.96875,-0.125 -0.38488,-0.0387 -0.76713,-0.0696 -1.15625,-0.0937 -0.62851,-0.039 -1.26762,-0.0625 -1.90625,-0.0625 l -131.59375,0 c -1.558125,0 -3.100933,0.11691 -4.59375,0.34375 -0.995211,0.15123 -1.946254,0.34789 -2.90625,0.59375 -7.679971,1.96685 -14.155967,6.87159 -18.15625,13.46875 -0.0046,0.007 0.0045,0.0238 0,0.0312 -1.992641,3.29287 -3.396496,6.99714 -4,10.96875 -0.0015,0.0101 0.0015,0.0212 0,0.0312 -0.14874,0.98553 -0.261372,1.98483 -0.3125,3 -5.34e-4,0.0104 5.24e-4,0.0209 0,0.0312 -0.02481,0.50262 -0.03125,1.02226 -0.03125,1.53125 l 0,47.15625 c 0,1.03875 0.05419,2.05154 0.15625,3.0625 0.001,0.0103 -10e-4,0.021 0,0.0312 0.153549,1.50583 0.414938,2.97591 0.78125,4.40625 0.0025,0.01 -0.0025,0.0216 0,0.0312 0.367691,1.42977 0.842287,2.81845 1.40625,4.15625 0.0037,0.009 -0.0037,0.0224 0,0.0312 0.375649,0.88872 0.824966,1.75172 1.28125,2.59375 0.0043,0.008 -0.0043,0.0233 0,0.0312 0.457225,0.84195 0.966925,1.64715 1.5,2.4375 0.0049,0.007 -0.0049,0.024 0,0.0312 0.533909,0.79012 1.113806,1.54763 1.71875,2.28125 0.0051,0.006 -0.0051,0.0251 0,0.0312 0.605959,0.73367 1.265269,1.42152 1.9375,2.09375 0.343935,0.34445 0.670889,0.67261 1.03125,1 0.709655,0.64473 1.449125,1.26889 2.21875,1.84375 1.53925,1.14972 3.188074,2.15948 4.9375,3 3.936209,1.89117 8.356875,2.9375 13.03125,2.9375 l 131.59375,0 c 0.44099,0 0.87625,-0.0126 1.3125,-0.0312 0.4463,-0.0189 0.87157,-0.0557 1.3125,-0.0937 0.30512,-0.0261 0.60386,-0.0587 0.90625,-0.0937 0.12263,-0.0143 0.25283,-0.0155 0.375,-0.0312 0.39441,-0.0507 0.76688,-0.12173 1.15625,-0.1875 0.0307,-0.005 0.0631,0.005 0.0937,0 0.0202,-0.003 0.0423,0.004 0.0625,0 0.40358,-0.0701 0.78972,-0.16402 1.1875,-0.25 0.2691,-0.0582 0.54619,-0.12223 0.8125,-0.1875 0.14515,-0.0357 0.2932,-0.056 0.4375,-0.0937 0.42929,-0.11195 0.85979,-0.24484 1.28125,-0.375 0.37621,-0.11653 0.75537,-0.24428 1.125,-0.375 0.34829,-0.12288 0.68907,-0.23981 1.03125,-0.375 0.0437,-0.0173 0.0814,-0.045 0.125,-0.0625 0.26553,-0.10635 0.51958,-0.19886 0.78125,-0.3125 0.11472,-0.0499 0.22979,-0.10498 0.34375,-0.15625 0.33421,-0.15028 0.6725,-0.30675 1,-0.46875 0.0422,-0.0209 0.0829,-0.0414 0.125,-0.0625 0.28095,-0.1406 0.56797,-0.28843 0.84375,-0.4375 0.0852,-0.0462 0.16528,-0.10927 0.25,-0.15625 0.34649,-0.19168 0.69341,-0.35768 1.03125,-0.5625 0.0126,-0.008 0.0187,-0.0236 0.0312,-0.0312 0.1687,-0.1026 0.33353,-0.20668 0.5,-0.3125 0.18091,-0.1151 0.35302,-0.22491 0.53125,-0.34375 0.0431,-0.0287 0.082,-0.0648 0.125,-0.0937 0.15915,-0.10734 0.31181,-0.23345 0.46875,-0.34375 0.26804,-0.18812 0.55105,-0.36591 0.8125,-0.5625 0.33745,-0.25374 0.67391,-0.51378 1,-0.78125 0.0114,-0.009 0.0199,-0.0219 0.0312,-0.0312 0.37013,-0.30521 0.73892,-0.64638 1.09375,-0.96875 0.29428,-0.26723 0.59163,-0.53385 0.875,-0.8125 0.0523,-0.0514 0.10436,-0.10447 0.15625,-0.15625 0.33362,-0.33362 0.6824,-0.6822 1,-1.03125 0.005,-0.006 -0.005,-0.0253 0,-0.0312 0.16118,-0.17741 0.31182,-0.34997 0.46875,-0.53125 0.30079,-0.34687 0.59022,-0.70186 0.875,-1.0625 0.0671,-0.0851 0.15256,-0.16415 0.21875,-0.25 0.11481,-0.14876 0.2317,-0.28653 0.34375,-0.4375 0.13175,-0.17748 0.24712,-0.35077 0.375,-0.53125 0.4066,-0.57386 0.79007,-1.17824 1.15625,-1.78125 0.25159,-0.41431 0.48701,-0.8227 0.71875,-1.25 0.38747,-0.71446 0.76414,-1.47031 1.09375,-2.21875 0.019,-0.0432 0.0437,-0.0817 0.0625,-0.125 0.0777,-0.17863 0.14447,-0.35081 0.21875,-0.53125 0.081,-0.19701 0.17309,-0.39463 0.25,-0.59375 0.24351,-0.63076 0.45489,-1.28664 0.65625,-1.9375 0.13802,-0.44612 0.28868,-0.88883 0.40625,-1.34375 0.0108,-0.0417 0.0206,-0.0832 0.0312,-0.125 0.0153,-0.0604 0.0163,-0.12694 0.0312,-0.1875 l 66.3125,0 0,32.46875 53.09375,-61.78125 0,22.03125 c 0,1.03875 0.0542,2.05154 0.15625,3.0625 10e-4,0.0103 -0.001,0.021 0,0.0312 0.15355,1.50583 0.41494,2.97591 0.78125,4.40625 0.002,0.01 -0.002,0.0216 0,0.0312 0.36769,1.42977 0.84229,2.81845 1.40625,4.15625 0.004,0.009 -0.004,0.0224 0,0.0312 0.18598,0.43999 0.38771,0.88365 0.59375,1.3125 0.84052,1.74943 1.85028,3.39825 3,4.9375 0.28743,0.38481 0.60104,0.75487 0.90625,1.125 0.005,0.006 -0.005,0.0251 0,0.0312 0.30046,0.36379 0.62044,0.71352 0.9375,1.0625 2.57893,2.83862 5.68865,5.19396 9.1875,6.875 1.31207,0.63039 2.68295,1.15678 4.09375,1.59375 0.47027,0.14566 0.92625,0.28332 1.40625,0.40625 0.96928,0.24927 1.93227,0.441 2.9375,0.59375 0.49761,0.0756 0.99452,0.13647 1.5,0.1875 1.02082,0.10409 2.04456,0.15625 3.09375,0.15625 l 154.3125,0 c 14.11184,0 25.89212,-9.63332 29.125,-22.71875 l 65.59375,0 0,32.46875 51.78125,-60.25 0,20.5 c 0,16.62 13.38,30 30,30 l 225.78125,0 c 16.62,0 30,-13.38 30,-30 l 0,-47.15625 c 0,-16.62 -13.38,-30 -30,-30 l -225.78125,0 c -16.62,0 -30,13.38 -30,30 l 0,20.53125 -51.78125,-60.28125 0,36.9375 -64.84375,0 c -1.41591,-15.28439 -14.20866,-27.1875 -29.875,-27.1875 l -154.3125,0 c -0.51938,0 -1.04976,0.005 -1.5625,0.0312 -0.51274,0.0258 -1.02577,0.074 -1.53125,0.125 -1.41773,0.14457 -2.80501,0.38516 -4.15625,0.71875 -0.0924,0.0227 -0.18916,0.0389 -0.28125,0.0625 -2.86919,0.73787 -5.59687,1.91118 -8.0625,3.40625 -0.41232,0.25002 -0.81987,0.51222 -1.21875,0.78125 -1.18875,0.80328 -2.31688,1.69493 -3.375,2.65625 -0.70965,0.64473 -1.38652,1.3216 -2.03125,2.03125 -0.64473,0.70965 -1.26889,1.44912 -1.84375,2.21875 -0.46178,0.61823 -0.86744,1.28345 -1.28125,1.9375 -0.0972,0.15395 -0.218,0.28166 -0.3125,0.4375 -0.005,0.008 0.005,0.0236 0,0.0312 -0.0882,0.1458 -0.19545,0.29008 -0.28125,0.4375 -0.39948,0.68524 -0.77968,1.37501 -1.125,2.09375 -1.26078,2.62414 -2.14007,5.45187 -2.59375,8.4375 -0.002,0.0101 0.002,0.0212 0,0.0312 -0.14874,0.98553 -0.26137,1.98483 -0.3125,3 -5.3e-4,0.0104 5.2e-4,0.0209 0,0.0312 -0.0248,0.50262 -0.0312,1.02226 -0.0312,1.53125 l 0,22.0625 L 304,770.23718 z"
       id="path4436"
       inkscape:connector-curvature="0" />
    <path
       style="fill:#ffbc00;fill-opacity:1;stroke:#000000;stroke-width:1px;stroke-linecap:butt;stroke-linejoin:miter;stroke-opacity:1"
       d="m 237.42918,807.1867 66.57082,0 0,-36.93869 54.39323,63.32347 L 304,896.89495 l 0,-32.47358 -66.57082,0"
       id="path4418"
       inkscape:connector-curvature="0"
       sodipodi:nodetypes="ccccccc" />
    <text
       xml:space="preserve"
       style="font-size:40px;font-style:normal;font-weight:normal;line-height:125%;letter-spacing:0px;word-spacing:0px;fill:#000000;fill-opacity:1;stroke:none;font-family:Sans"
       x="72.947144"
       y="851.43195"
       id="text4414"
       sodipodi:linespacing="125%"><tspan
         sodipodi:role="line"
         id="tspan4416"
         x="72.947144"
         y="851.43195">CRTC's</tspan></text>
    <text
       sodipodi:linespacing="125%"
       id="text4424"
       y="851.43195"
       x="713.89008"
       style="font-size:40px;font-style:normal;font-weight:normal;line-height:125%;letter-spacing:0px;word-spacing:0px;fill:#000000;fill-opacity:1;stroke:none;font-family:Sans"
       xml:space="preserve"><tspan
         y="851.43195"
         x="713.89008"
         id="tspan4426"
         sodipodi:role="line">Connectors</tspan></text>
    <text
       sodipodi:linespacing="125%"
       id="text4432"
       y="851.43195"
       x="72.947144"
       style="font-size:40px;font-style:normal;font-weight:normal;line-height:125%;letter-spacing:0px;word-spacing:0px;fill:#000000;fill-opacity:1;stroke:none;font-family:Sans"
       xml:space="preserve"><tspan
         y="851.43195"
         x="72.947144"
         id="tspan4434"
         sodipodi:role="line">CRTC's</tspan></text>
    <text
       sodipodi:linespacing="125%"
       id="text4440"
       y="851.43195"
       x="373.06976"
       style="font-size:40px;font-style:normal;font-weight:normal;line-height:125%;letter-spacing:0px;word-spacing:0px;fill:#000000;fill-opacity:1;stroke:none;font-family:Sans"
       xml:space="preserve"><tspan
         y="851.43195"
         x="373.06976"
         id="tspan4442"
         sodipodi:role="line">Encoders</tspan></text>
    <rect
       style="color:#000000;fill:none;stroke:#fdca01;stroke-width:6;stroke-miterlimit:4;stroke-opacity:1;stroke-dasharray:none;marker:none;visibility:visible;display:inline;overflow:visible;enable-background:accumulate"
       id="rect2992"
       width="271.19916"
       height="151.00214"
       x="14.173363"
       y="527.85052" />
    <path
       style="fill:#ffbc00;fill-opacity:1;stroke:none"
       d="m 134.2235,688.34104 0,51.14588 -27.03957,0 40.59197,40.59196 38.96829,-40.59196 -26.54183,0 0,-51.14588 z"
       id="path3762"
       inkscape:connector-curvature="0"
       sodipodi:nodetypes="cccccccc" />
    <text
       xml:space="preserve"
       style="font-size:40px;font-style:normal;font-weight:normal;line-height:125%;letter-spacing:0px;word-spacing:0px;fill:#ffbc00;fill-opacity:1;stroke:none;font-family:Sans"
       x="28.003899"
       y="616.34082"
       id="text3764"
       sodipodi:linespacing="125%"><tspan
         sodipodi:role="line"
         id="tspan3766"
         x="28.003899"
         y="616.34082">Framebuffer</tspan></text>
  </g>
</svg>
